<svg width="683" height="683" viewBox="0 0 683 683" fill="none" xmlns="http://www.w3.org/2000/svg">
<path d="M49.8666 1.20001C36.9333 4.40002 25.0666 14.5334 18.9333 27.7333L15.3333 35.3334V341.333V647.333L18.9333 654.933C23.6 664.933 31.6 673.333 40.9333 678.133L48.6666 682H341.333H634L641.733 678.133C651.067 673.333 659.067 664.933 663.733 654.933L667.333 647.333V341.333V35.3334L663.733 27.7333C659.067 17.7333 651.067 9.33337 641.733 4.53339L634 0.666687L344 0.400024C184.533 0.400024 52.1333 0.666687 49.8666 1.20001ZM626.4 41.6C627.6 42.8 628 111.333 628 341.467C628 610.933 627.733 640 625.867 641.867C624 643.733 596.4 644 341.333 644C86.2666 644 58.6666 643.733 56.8 641.867C54.9333 640 54.6666 610.933 54.6666 341.467C54.6666 111.333 55.0666 42.8 56.2666 41.6C58.5333 39.3334 624.133 39.3334 626.4 41.6Z" fill="black"/>
<path d="M315.2 485.733C303.2 493.6 303.333 510.4 315.2 518.4L319.867 521.467L382.267 521.067L444.667 520.667L449.6 515.6C454.4 510.933 454.667 510.133 454.667 502.133C454.667 494.8 454.133 493.067 451.333 490C444.4 482.533 445.733 482.667 380.267 482.667H319.733L315.2 485.733Z" fill="#8A1214"/>
<path d="M199.098 438.03C193.134 438.412 189.272 439.044 184.389 440.431C167.067 445.343 152.458 457.59 144.463 473.885C141.021 480.897 138.979 488.271 138.189 496.489C137.879 499.814 137.959 505.812 138.369 509.298C139.79 521.424 144.463 532.636 152.048 542.099C154.079 544.641 157.601 548.298 159.973 550.347C169.769 558.786 181.307 563.95 193.945 565.547C196.977 565.929 198.368 566.009 202.1 565.999C206.013 565.999 207.754 565.879 211.106 565.396C222.193 563.819 232.64 559.359 241.495 552.427C245.698 549.142 249.971 544.781 253.213 540.462C260.057 531.36 264.29 520.731 265.631 509.298C266.041 505.812 266.121 499.814 265.811 496.489C265.601 494.339 265.231 491.677 264.881 489.858C261.168 470.55 248.69 453.973 231.069 444.952C223.784 441.224 216.069 439.004 207.654 438.221C206.073 438.07 200.379 437.939 199.098 438.03ZM204.332 458.514C211.646 458.785 219.661 461.568 225.965 466.019C227.566 467.144 229.258 468.52 229.158 468.601C229.067 468.681 200.449 489.607 174.362 508.675C167.768 513.497 162.334 517.436 162.294 517.436C162.114 517.436 160.964 513.608 160.483 511.408C158.182 500.909 159.903 489.457 165.206 480.164C168.208 474.89 172.371 470.168 177.134 466.652C183.048 462.292 189.772 459.599 197.047 458.715C198.438 458.544 201.49 458.384 202.4 458.424C202.7 458.444 203.571 458.484 204.332 458.514ZM242.106 487.568C244.928 495.615 245.278 504.697 243.076 513.266C241.846 518.048 239.774 522.66 237.003 526.779C234.491 530.506 231.259 533.972 227.667 536.775C218.04 544.309 205.402 547.263 193.495 544.751C188.221 543.646 183.378 541.597 178.835 538.573C177.294 537.548 175.233 535.971 175.233 535.82C175.233 535.74 241.696 487.015 241.836 487.005C241.876 486.995 241.986 487.257 242.106 487.568Z" fill="#8A1214"/>
<path d="M314.933 326.267C302.8 332.267 300.667 348.4 310.8 358.133L314.8 362L423.067 362.4C528.533 362.667 531.467 362.667 535.6 360.133C544.667 354.533 547.333 344.4 542.4 334.8C536.4 323.333 544.133 324 424.667 324C330.4 324 318.933 324.267 314.933 326.267Z" fill="black"/>
<path d="M204.271 277.014C183.93 276.939 163.047 285.816 151.128 302.53C138.725 319.671 135.598 342.299 139.704 362.741C142.588 376.384 150.596 389.278 162.856 396.407C176.84 404.834 193.892 406.096 209.83 404.278C217.829 403.312 225.703 401.182 233.019 397.847C233.019 392.809 233.019 387.772 233.019 382.734C216.577 389.527 197.78 392.837 180.306 387.96C168.028 384.512 158.049 373.968 155.349 361.545C152.125 348.9 152.908 335.301 156.994 322.964C161.369 310.635 170.855 299.968 183.311 295.482C195.74 290.634 210.018 290.19 222.703 294.376C234.009 298.508 243.222 308.233 246.043 319.889C248.975 330.559 248.638 342.345 244.495 352.616C242.669 356.944 238.542 361.357 233.394 360.367C230.546 359.91 228.322 357.503 228.044 354.663C226.524 347.507 228.39 340.191 228.27 332.958C228.661 325.642 229.052 318.326 229.456 311.01C217.866 307.552 205.346 305.328 193.388 308.12C181.281 311.427 171.994 322.283 169.968 334.581C168.198 343.738 168.967 353.628 173.217 361.956C177.147 369.094 184.754 374.176 193.003 374.491C202.103 375.342 211.798 371.557 216.969 363.899C220.336 371.555 229.345 375.911 237.534 374.36C247.302 373.024 255.185 365.407 258.627 356.472C264.318 343.225 264.061 327.973 260.116 314.283C255.411 299.173 243.704 286.244 228.592 280.982C220.852 278.081 212.542 276.852 204.271 277.014ZM203.31 320.935C206.527 320.925 209.756 321.185 212.877 321.863C211.963 332.302 213.084 343.233 209.057 353.121C207.129 357.297 202.916 360.544 198.219 360.482C193.303 360.962 187.842 358.083 186.693 353.032C184.497 346.329 185.145 338.911 187.154 332.257C189.406 326.145 195.137 321.079 201.889 321.012C202.361 320.971 202.836 320.945 203.31 320.935Z" fill="black"/>
<path d="M314.4 165.133C307.733 168.6 303.467 176.867 304.4 184.067C305.2 189.933 308.267 194.733 313.867 198.867C317.467 201.667 318.533 201.667 424.667 201.667C530.8 201.667 531.867 201.667 535.467 198.867C544.8 191.933 547.333 183.267 542.8 173.8C540.533 169.4 538.4 167.133 534.133 165.133C528.533 162.333 526.8 162.333 423.867 162.333C322.4 162.467 319.2 162.467 314.4 165.133Z" fill="black"/>
<path d="M204.271 116.014C183.93 115.939 163.047 124.816 151.128 141.53C138.725 158.671 135.598 181.299 139.704 201.741C142.588 215.384 150.596 228.278 162.856 235.407C176.84 243.834 193.892 245.096 209.83 243.278C217.829 242.312 225.703 240.182 233.019 236.847C233.019 231.809 233.019 226.772 233.019 221.734C216.577 228.527 197.78 231.837 180.306 226.96C168.028 223.512 158.049 212.968 155.349 200.545C152.125 187.9 152.908 174.301 156.994 161.964C161.369 149.635 170.855 138.968 183.311 134.482C195.74 129.634 210.018 129.19 222.703 133.376C234.009 137.508 243.222 147.233 246.043 158.889C248.975 169.559 248.638 181.345 244.495 191.616C242.669 195.944 238.542 200.357 233.394 199.367C230.546 198.91 228.322 196.503 228.044 193.663C226.524 186.507 228.39 179.191 228.27 171.958C228.661 164.642 229.052 157.326 229.456 150.01C217.866 146.552 205.346 144.328 193.388 147.12C181.281 150.427 171.994 161.283 169.968 173.581C168.198 182.738 168.967 192.628 173.217 200.956C177.147 208.094 184.754 213.176 193.003 213.491C202.103 214.342 211.798 210.557 216.969 202.899C220.336 210.555 229.345 214.911 237.534 213.36C247.302 212.024 255.185 204.407 258.627 195.472C264.318 182.225 264.061 166.973 260.116 153.283C255.411 138.173 243.704 125.244 228.592 119.982C220.852 117.081 212.542 115.852 204.271 116.014ZM203.31 159.935C206.527 159.925 209.756 160.185 212.877 160.863C211.963 171.302 213.084 182.233 209.057 192.121C207.129 196.297 202.916 199.544 198.219 199.482C193.303 199.962 187.842 197.083 186.693 192.032C184.497 185.329 185.145 177.911 187.154 171.257C189.406 165.145 195.137 160.079 201.889 160.012C202.361 159.971 202.836 159.945 203.31 159.935Z" fill="black"/>
</svg>
