<svg width="676" height="676" viewBox="0 0 676 676" fill="none" xmlns="http://www.w3.org/2000/svg">
<path d="M275.984 508.836V561H31.264V123.08H269.544V175.888H87.292V313.06H250.224V365.868H87.292V508.836H275.984Z" fill="#00A2E2" fill-opacity="0.1"/>
<path d="M373.389 561V123.08H502.189C544.264 123.08 575.176 133.384 594.925 153.992C615.104 174.171 625.193 201.433 625.193 235.78V249.948C625.193 268.839 620.9 285.583 612.313 300.18C603.726 314.777 591.276 326.369 574.961 334.956C597.716 342.255 614.889 354.276 626.481 371.02C638.502 387.335 644.513 407.084 644.513 430.268V444.436C644.513 479.641 634.209 507.977 613.601 529.444C593.422 550.481 561.652 561 518.289 561H373.389ZM502.189 174.6H429.417V313.06H502.189C523.656 313.06 539.756 307.693 550.489 296.96C561.652 285.797 567.233 270.556 567.233 251.236V235.78C567.233 216.889 561.652 202.077 550.489 191.344C539.756 180.181 523.656 174.6 502.189 174.6ZM518.289 364.58H429.417V510.124H518.289C541.044 510.124 558.002 504.328 569.165 492.736C580.757 481.144 586.553 465.044 586.553 444.436V428.98C586.553 409.231 580.757 393.56 569.165 381.968C558.002 370.376 541.044 364.58 518.289 364.58Z" fill="#00A2E2" fill-opacity="0.1"/>
<rect x="16" y="16" width="644" height="644" rx="59" stroke="#00A2E2" stroke-width="32"/>
<path d="M312.2 497.733C300.2 505.6 300.333 522.4 312.2 530.4L316.867 533.467L379.267 533.067L441.667 532.667L446.6 527.6C451.4 522.933 451.667 522.133 451.667 514.133C451.667 506.8 451.133 505.067 448.333 502C441.4 494.533 442.733 494.667 377.267 494.667H316.733L312.2 497.733Z" fill="#8A1214"/>
<path d="M196.098 450.03C190.134 450.412 186.272 451.044 181.389 452.431C164.067 457.343 149.458 469.59 141.463 485.885C138.021 492.897 135.979 500.271 135.189 508.489C134.879 511.814 134.959 517.812 135.369 521.298C136.79 533.424 141.463 544.636 149.048 554.099C151.079 556.641 154.601 560.298 156.973 562.347C166.769 570.786 178.307 575.95 190.945 577.547C193.977 577.929 195.368 578.009 199.1 577.999C203.013 577.999 204.754 577.879 208.106 577.396C219.193 575.819 229.64 571.359 238.495 564.427C242.698 561.142 246.971 556.781 250.213 552.462C257.057 543.36 261.29 532.731 262.631 521.298C263.041 517.812 263.121 511.814 262.811 508.489C262.601 506.339 262.231 503.677 261.881 501.858C258.168 482.55 245.69 465.973 228.069 456.952C220.784 453.224 213.069 451.004 204.654 450.221C203.073 450.07 197.379 449.939 196.098 450.03ZM201.332 470.514C208.646 470.785 216.661 473.568 222.965 478.019C224.566 479.144 226.258 480.52 226.158 480.601C226.067 480.681 197.449 501.607 171.362 520.675C164.768 525.497 159.334 529.436 159.294 529.436C159.114 529.436 157.964 525.608 157.483 523.408C155.182 512.909 156.903 501.457 162.206 492.164C165.208 486.89 169.371 482.168 174.134 478.652C180.048 474.292 186.772 471.599 194.047 470.715C195.438 470.544 198.49 470.384 199.4 470.424C199.7 470.444 200.571 470.484 201.332 470.514ZM239.106 499.568C241.928 507.615 242.278 516.697 240.076 525.266C238.846 530.048 236.774 534.66 234.003 538.779C231.491 542.506 228.259 545.972 224.667 548.775C215.04 556.309 202.402 559.263 190.495 556.751C185.221 555.646 180.378 553.597 175.835 550.573C174.294 549.548 172.233 547.971 172.233 547.82C172.233 547.74 238.696 499.015 238.836 499.005C238.876 498.995 238.986 499.257 239.106 499.568Z" fill="#8A1214"/>
<path d="M311.933 322.267C299.8 328.267 297.667 344.4 307.8 354.133L311.8 358L420.067 358.4C525.533 358.667 528.467 358.667 532.6 356.133C541.667 350.533 544.333 340.4 539.4 330.8C533.4 319.333 541.133 320 421.667 320C327.4 320 315.933 320.267 311.933 322.267Z" fill="#00A2E2"/>
<path d="M202.861 274.014C182.032 273.938 160.648 283.022 148.443 300.129C135.742 317.671 132.54 340.83 136.745 361.75C139.698 375.714 147.899 388.91 160.453 396.206C174.773 404.83 192.233 406.121 208.554 404.261C216.745 403.272 224.808 401.093 232.3 397.679C232.3 392.524 232.3 387.368 232.3 382.213C215.463 389.165 196.215 392.552 178.321 387.561C165.749 384.032 155.53 373.24 152.765 360.527C149.464 347.585 150.266 333.668 154.449 321.041C158.93 308.423 168.644 297.507 181.399 292.915C194.126 287.954 208.747 287.499 221.736 291.783C233.313 296.012 242.747 305.965 245.636 317.895C248.639 328.814 248.293 340.877 244.051 351.388C242.181 355.817 237.955 360.335 232.683 359.321C229.767 358.853 227.49 356.39 227.205 353.483C225.649 346.159 227.56 338.672 227.436 331.27C227.837 323.782 228.237 316.294 228.651 308.807C216.782 305.268 203.963 302.992 191.717 305.849C179.319 309.234 169.81 320.344 167.735 332.931C165.923 342.302 166.71 352.424 171.062 360.947C175.086 368.253 182.876 373.453 191.323 373.776C200.642 374.647 210.569 370.773 215.864 362.936C219.312 370.771 228.538 375.229 236.923 373.642C246.926 372.275 254.997 364.479 258.522 355.334C264.35 341.777 264.087 326.168 260.047 312.157C255.229 296.693 243.241 283.461 227.767 278.076C219.841 275.106 211.331 273.849 202.861 274.014ZM201.878 318.965C205.172 318.954 208.478 319.221 211.674 319.915C210.738 330.599 211.886 341.785 207.762 351.905C205.788 356.179 201.474 359.502 196.665 359.439C191.63 359.93 186.038 356.984 184.862 351.814C182.612 344.954 183.276 337.362 185.334 330.552C187.64 324.297 193.508 319.112 200.422 319.043C200.906 319.001 201.392 318.975 201.878 318.965Z" fill="#00A2E2"/>
<path d="M311.4 146.133C304.733 149.6 300.467 157.867 301.4 165.067C302.2 170.933 305.267 175.733 310.867 179.867C314.467 182.667 315.533 182.667 421.667 182.667C527.8 182.667 528.867 182.667 532.467 179.867C541.8 172.933 544.333 164.267 539.8 154.8C537.533 150.4 535.4 148.133 531.133 146.133C525.533 143.333 523.8 143.333 420.867 143.333C319.4 143.467 316.2 143.467 311.4 146.133Z" fill="#00A2E2"/>
<path d="M202.861 98.0144C182.032 97.9375 160.648 107.022 148.443 124.129C135.742 141.671 132.54 164.83 136.745 185.75C139.698 199.714 147.899 212.91 160.453 220.206C174.773 228.83 192.233 230.121 208.554 228.261C216.745 227.272 224.808 225.093 232.3 221.679C232.3 216.524 232.3 211.368 232.3 206.213C215.463 213.165 196.215 216.552 178.321 211.561C165.749 208.032 155.53 197.24 152.765 184.527C149.464 171.585 150.266 157.668 154.449 145.041C158.93 132.423 168.644 121.507 181.399 116.915C194.126 111.954 208.747 111.499 221.736 115.783C233.313 120.012 242.747 129.965 245.636 141.895C248.639 152.814 248.293 164.877 244.051 175.388C242.181 179.817 237.955 184.335 232.683 183.321C229.767 182.853 227.49 180.39 227.205 177.483C225.649 170.159 227.56 162.672 227.436 155.27C227.837 147.782 228.237 140.294 228.651 132.807C216.782 129.268 203.963 126.992 191.717 129.849C179.319 133.234 169.81 144.344 167.735 156.931C165.923 166.302 166.71 176.424 171.062 184.947C175.086 192.253 182.876 197.453 191.323 197.776C200.642 198.647 210.569 194.773 215.864 186.936C219.312 194.771 228.538 199.229 236.923 197.642C246.926 196.275 254.997 188.479 258.522 179.334C264.35 165.777 264.087 150.168 260.047 136.157C255.229 120.693 243.241 107.461 227.767 102.076C219.841 99.1058 211.331 97.8486 202.861 98.0144ZM201.878 142.965C205.172 142.954 208.478 143.221 211.674 143.915C210.738 154.599 211.886 165.785 207.762 175.905C205.788 180.179 201.474 183.502 196.665 183.439C191.63 183.93 186.038 180.984 184.862 175.814C182.612 168.954 183.276 161.362 185.334 154.552C187.64 148.297 193.508 143.112 200.422 143.043C200.906 143.001 201.392 142.975 201.878 142.965Z" fill="#00A2E2"/>
</svg>
